<?xml version="1.0" encoding="UTF-8" standalone="no"?>
<!DOCTYPE svg PUBLIC "-//W3C//DTD SVG 1.1//EN"
 "http://www.w3.org/Graphics/SVG/1.1/DTD/svg11.dtd">
<!-- Generated by graphviz version 2.30.1 (20180420.1509)
 -->
<!-- Title: snakemake_dag Pages: 1 -->
<svg width="1092pt" height="476pt"
 viewBox="0.00 0.00 1091.82 476.00" xmlns="http://www.w3.org/2000/svg" xmlns:xlink="http://www.w3.org/1999/xlink">
<g id="graph0" class="graph" transform="scale(1 1) rotate(0) translate(4 472)">
<title>snakemake_dag</title>
<polygon fill="white" stroke="white" points="-4,5 -4,-472 1088.82,-472 1088.82,5 -4,5"/>
<!-- 0 -->
<g id="node1" class="node"><title>0</title>
<path fill="none" stroke="#56d8b9" stroke-width="2" d="M698,-36C698,-36 668,-36 668,-36 662,-36 656,-30 656,-24 656,-24 656,-12 656,-12 656,-6 662,-0 668,-0 668,-0 698,-0 698,-0 704,-0 710,-6 710,-12 710,-12 710,-24 710,-24 710,-30 704,-36 698,-36"/>
<text text-anchor="middle" x="683" y="-15.5" font-family="sans" font-size="10.00">all</text>
</g>
<!-- 1 -->
<g id="node2" class="node"><title>1</title>
<path fill="none" stroke="#567bd8" stroke-width="2" d="M536.25,-252C536.25,-252 465.75,-252 465.75,-252 459.75,-252 453.75,-246 453.75,-240 453.75,-240 453.75,-228 453.75,-228 453.75,-222 459.75,-216 465.75,-216 465.75,-216 536.25,-216 536.25,-216 542.25,-216 548.25,-222 548.25,-228 548.25,-228 548.25,-240 548.25,-240 548.25,-246 542.25,-252 536.25,-252"/>
<text text-anchor="middle" x="501" y="-237" font-family="sans" font-size="10.00">count16SShared</text>
<text text-anchor="middle" x="501" y="-226" font-family="sans" font-size="10.00">group: sample</text>
</g>
<!-- 1&#45;&gt;0 -->
<g id="edge1" class="edge"><title>1&#45;&gt;0</title>
<path fill="none" stroke="grey" stroke-width="2" d="M453.749,-222.718C368.307,-203.062 193.73,-157.671 159,-108 149.832,-94.8874 148.271,-83.8693 159,-72 191.591,-35.946 531.481,-23.2217 645.756,-19.9442"/>
<polygon fill="grey" stroke="grey" points="645.884,-23.4421 655.782,-19.6645 645.689,-16.4449 645.884,-23.4421"/>
</g>
<!-- 4 -->
<g id="node5" class="node"><title>4</title>
<path fill="none" stroke="#8fd856" stroke-width="2" d="M724,-180C724,-180 626,-180 626,-180 620,-180 614,-174 614,-168 614,-168 614,-156 614,-156 614,-150 620,-144 626,-144 626,-144 724,-144 724,-144 730,-144 736,-150 736,-156 736,-156 736,-168 736,-168 736,-174 730,-180 724,-180"/>
<text text-anchor="middle" x="675" y="-159.5" font-family="sans" font-size="10.00">subsample16SShared</text>
</g>
<!-- 1&#45;&gt;4 -->
<g id="edge20" class="edge"><title>1&#45;&gt;4</title>
<path fill="none" stroke="grey" stroke-width="2" d="M543.565,-215.876C567.563,-206.222 597.728,-194.087 623.104,-183.878"/>
<polygon fill="grey" stroke="grey" points="624.602,-187.048 632.573,-180.068 621.989,-180.554 624.602,-187.048"/>
</g>
<!-- 7 -->
<g id="node8" class="node"><title>7</title>
<path fill="none" stroke="#d8a456" stroke-width="2" d="M114,-180C114,-180 12,-180 12,-180 6,-180 0,-174 0,-168 0,-168 0,-156 0,-156 0,-150 6,-144 12,-144 12,-144 114,-144 114,-144 120,-144 126,-150 126,-156 126,-156 126,-168 126,-168 126,-174 120,-180 114,-180"/>
<text text-anchor="middle" x="63" y="-159.5" font-family="sans" font-size="10.00">calc16SAlphaDiversity</text>
</g>
<!-- 1&#45;&gt;7 -->
<g id="edge25" class="edge"><title>1&#45;&gt;7</title>
<path fill="none" stroke="grey" stroke-width="2" d="M453.517,-227.13C384.323,-218.326 251.837,-200.528 140,-180 138.75,-179.771 137.49,-179.536 136.221,-179.295"/>
<polygon fill="grey" stroke="grey" points="136.862,-175.854 126.376,-177.369 135.518,-182.724 136.862,-175.854"/>
</g>
<!-- 8 -->
<g id="node9" class="node"><title>8</title>
<path fill="none" stroke="#d8cb56" stroke-width="2" d="M549.25,-180C549.25,-180 452.75,-180 452.75,-180 446.75,-180 440.75,-174 440.75,-168 440.75,-168 440.75,-156 440.75,-156 440.75,-150 446.75,-144 452.75,-144 452.75,-144 549.25,-144 549.25,-144 555.25,-144 561.25,-150 561.25,-156 561.25,-156 561.25,-168 561.25,-168 561.25,-174 555.25,-180 549.25,-180"/>
<text text-anchor="middle" x="501" y="-159.5" font-family="sans" font-size="10.00">calc16SBetaDiversity</text>
</g>
<!-- 1&#45;&gt;8 -->
<g id="edge27" class="edge"><title>1&#45;&gt;8</title>
<path fill="none" stroke="grey" stroke-width="2" d="M501,-215.697C501,-207.983 501,-198.712 501,-190.112"/>
<polygon fill="grey" stroke="grey" points="504.5,-190.104 501,-180.104 497.5,-190.104 504.5,-190.104"/>
</g>
<!-- 2 -->
<g id="node3" class="node"><title>2</title>
<path fill="none" stroke="#567bd8" stroke-width="2" d="M936.25,-252C936.25,-252 865.75,-252 865.75,-252 859.75,-252 853.75,-246 853.75,-240 853.75,-240 853.75,-228 853.75,-228 853.75,-222 859.75,-216 865.75,-216 865.75,-216 936.25,-216 936.25,-216 942.25,-216 948.25,-222 948.25,-228 948.25,-228 948.25,-240 948.25,-240 948.25,-246 942.25,-252 936.25,-252"/>
<text text-anchor="middle" x="901" y="-237" font-family="sans" font-size="10.00">count16SShared</text>
<text text-anchor="middle" x="901" y="-226" font-family="sans" font-size="10.00">group: mock</text>
</g>
<!-- 2&#45;&gt;0 -->
<g id="edge2" class="edge"><title>2&#45;&gt;0</title>
<path fill="none" stroke="grey" stroke-width="2" d="M935.682,-215.834C949.307,-207.127 963.468,-195.151 971,-180 992.933,-135.882 983.115,-104.403 946,-72 912.763,-42.9825 784.682,-27.887 720.338,-21.9998"/>
<polygon fill="grey" stroke="grey" points="720.482,-18.4989 710.212,-21.1013 719.864,-25.4715 720.482,-18.4989"/>
</g>
<!-- 5 -->
<g id="node6" class="node"><title>5</title>
<path fill="none" stroke="#8fd856" stroke-width="2" d="M950,-180C950,-180 852,-180 852,-180 846,-180 840,-174 840,-168 840,-168 840,-156 840,-156 840,-150 846,-144 852,-144 852,-144 950,-144 950,-144 956,-144 962,-150 962,-156 962,-156 962,-168 962,-168 962,-174 956,-180 950,-180"/>
<text text-anchor="middle" x="901" y="-159.5" font-family="sans" font-size="10.00">subsample16SShared</text>
</g>
<!-- 2&#45;&gt;5 -->
<g id="edge22" class="edge"><title>2&#45;&gt;5</title>
<path fill="none" stroke="grey" stroke-width="2" d="M901,-215.697C901,-207.983 901,-198.712 901,-190.112"/>
<polygon fill="grey" stroke="grey" points="904.5,-190.104 901,-180.104 897.5,-190.104 904.5,-190.104"/>
</g>
<!-- 3 -->
<g id="node4" class="node"><title>3</title>
<path fill="none" stroke="#567bd8" stroke-width="2" d="M1049.25,-252C1049.25,-252 978.75,-252 978.75,-252 972.75,-252 966.75,-246 966.75,-240 966.75,-240 966.75,-228 966.75,-228 966.75,-222 972.75,-216 978.75,-216 978.75,-216 1049.25,-216 1049.25,-216 1055.25,-216 1061.25,-222 1061.25,-228 1061.25,-228 1061.25,-240 1061.25,-240 1061.25,-246 1055.25,-252 1049.25,-252"/>
<text text-anchor="middle" x="1014" y="-237" font-family="sans" font-size="10.00">count16SShared</text>
<text text-anchor="middle" x="1014" y="-226" font-family="sans" font-size="10.00">group: control</text>
</g>
<!-- 3&#45;&gt;0 -->
<g id="edge3" class="edge"><title>3&#45;&gt;0</title>
<path fill="none" stroke="grey" stroke-width="2" d="M1015.39,-215.981C1017.05,-183.006 1015.58,-110.29 975,-72 938.82,-37.8636 791.101,-25.0706 720.682,-20.8445"/>
<polygon fill="grey" stroke="grey" points="720.658,-17.3374 710.474,-20.2596 720.257,-24.326 720.658,-17.3374"/>
</g>
<!-- 4&#45;&gt;0 -->
<g id="edge4" class="edge"><title>4&#45;&gt;0</title>
<path fill="none" stroke="grey" stroke-width="2" d="M736.094,-151.241C783.045,-142.348 842.285,-127.611 857,-108 895.501,-56.688 782.231,-32.6241 720.364,-23.548"/>
<polygon fill="grey" stroke="grey" points="720.572,-20.0429 710.183,-22.1209 719.6,-26.9752 720.572,-20.0429"/>
</g>
<!-- 5&#45;&gt;0 -->
<g id="edge5" class="edge"><title>5&#45;&gt;0</title>
<path fill="none" stroke="grey" stroke-width="2" d="M914.66,-143.818C928.283,-124.466 944.932,-92.9864 928,-72 902.362,-40.2228 782.678,-26.5548 720.591,-21.5214"/>
<polygon fill="grey" stroke="grey" points="720.664,-18.0166 710.423,-20.7327 720.122,-24.9957 720.664,-18.0166"/>
</g>
<!-- 6 -->
<g id="node7" class="node"><title>6</title>
<path fill="none" stroke="#56d0d8" stroke-width="2" d="M784.25,-252C784.25,-252 715.75,-252 715.75,-252 709.75,-252 703.75,-246 703.75,-240 703.75,-240 703.75,-228 703.75,-228 703.75,-222 709.75,-216 715.75,-216 715.75,-216 784.25,-216 784.25,-216 790.25,-216 796.25,-222 796.25,-228 796.25,-228 796.25,-240 796.25,-240 796.25,-246 790.25,-252 784.25,-252"/>
<text text-anchor="middle" x="750" y="-231.5" font-family="sans" font-size="10.00">rarefy16SReads</text>
</g>
<!-- 6&#45;&gt;0 -->
<g id="edge6" class="edge"><title>6&#45;&gt;0</title>
<path fill="none" stroke="grey" stroke-width="2" d="M764.234,-215.915C779.891,-197.475 806.143,-167.582 831,-144 849.33,-126.61 864.18,-130.833 875,-108 881.852,-93.5413 884.692,-84.7303 875,-72 856.373,-47.5339 770.96,-31.4821 720.547,-23.9618"/>
<polygon fill="grey" stroke="grey" points="720.755,-20.4556 710.357,-22.4866 719.752,-27.3834 720.755,-20.4556"/>
</g>
<!-- 7&#45;&gt;0 -->
<g id="edge7" class="edge"><title>7&#45;&gt;0</title>
<path fill="none" stroke="grey" stroke-width="2" d="M69.796,-143.811C79.0687,-122.883 97.8216,-88.3154 126,-72 214.677,-20.6558 535.492,-17.9429 645.6,-18.5769"/>
<polygon fill="grey" stroke="grey" points="645.857,-22.0788 655.882,-18.6497 645.907,-15.0789 645.857,-22.0788"/>
</g>
<!-- 8&#45;&gt;0 -->
<g id="edge8" class="edge"><title>8&#45;&gt;0</title>
<path fill="none" stroke="grey" stroke-width="2" d="M449.887,-143.843C433.57,-135.67 417.337,-124.068 408,-108 399.961,-94.1661 397.813,-84.3379 408,-72 437.679,-36.055 577.172,-24.2226 645.329,-20.5473"/>
<polygon fill="grey" stroke="grey" points="645.818,-24.0271 655.628,-20.025 645.463,-17.0361 645.818,-24.0271"/>
</g>
<!-- 9 -->
<g id="node10" class="node"><title>9</title>
<path fill="none" stroke="#56d86b" stroke-width="2" d="M505,-108C505,-108 429,-108 429,-108 423,-108 417,-102 417,-96 417,-96 417,-84 417,-84 417,-78 423,-72 429,-72 429,-72 505,-72 505,-72 511,-72 517,-78 517,-84 517,-84 517,-96 517,-96 517,-102 511,-108 505,-108"/>
<text text-anchor="middle" x="467" y="-93" font-family="sans" font-size="10.00">calc16SNMDS</text>
<text text-anchor="middle" x="467" y="-82" font-family="sans" font-size="10.00">beta: sharedsobs</text>
</g>
<!-- 8&#45;&gt;9 -->
<g id="edge28" class="edge"><title>8&#45;&gt;9</title>
<path fill="none" stroke="grey" stroke-width="2" d="M492.596,-143.697C488.725,-135.728 484.048,-126.1 479.757,-117.264"/>
<polygon fill="grey" stroke="grey" points="482.825,-115.57 475.308,-108.104 476.529,-118.629 482.825,-115.57"/>
</g>
<!-- 10 -->
<g id="node11" class="node"><title>10</title>
<path fill="none" stroke="#56d86b" stroke-width="2" d="M606.25,-108C606.25,-108 547.75,-108 547.75,-108 541.75,-108 535.75,-102 535.75,-96 535.75,-96 535.75,-84 535.75,-84 535.75,-78 541.75,-72 547.75,-72 547.75,-72 606.25,-72 606.25,-72 612.25,-72 618.25,-78 618.25,-84 618.25,-84 618.25,-96 618.25,-96 618.25,-102 612.25,-108 606.25,-108"/>
<text text-anchor="middle" x="577" y="-93" font-family="sans" font-size="10.00">calc16SNMDS</text>
<text text-anchor="middle" x="577" y="-82" font-family="sans" font-size="10.00">beta: thetayc</text>
</g>
<!-- 8&#45;&gt;10 -->
<g id="edge29" class="edge"><title>8&#45;&gt;10</title>
<path fill="none" stroke="grey" stroke-width="2" d="M519.787,-143.697C529.174,-135.05 540.684,-124.449 550.913,-115.027"/>
<polygon fill="grey" stroke="grey" points="553.445,-117.454 558.43,-108.104 548.703,-112.305 553.445,-117.454"/>
</g>
<!-- 11 -->
<g id="node12" class="node"><title>11</title>
<path fill="none" stroke="#56d86b" stroke-width="2" d="M717.25,-108C717.25,-108 648.75,-108 648.75,-108 642.75,-108 636.75,-102 636.75,-96 636.75,-96 636.75,-84 636.75,-84 636.75,-78 642.75,-72 648.75,-72 648.75,-72 717.25,-72 717.25,-72 723.25,-72 729.25,-78 729.25,-84 729.25,-84 729.25,-96 729.25,-96 729.25,-102 723.25,-108 717.25,-108"/>
<text text-anchor="middle" x="683" y="-93" font-family="sans" font-size="10.00">calc16SNMDS</text>
<text text-anchor="middle" x="683" y="-82" font-family="sans" font-size="10.00">beta: braycurtis</text>
</g>
<!-- 8&#45;&gt;11 -->
<g id="edge30" class="edge"><title>8&#45;&gt;11</title>
<path fill="none" stroke="grey" stroke-width="2" d="M545.522,-143.876C570.734,-134.179 602.453,-121.98 629.069,-111.743"/>
<polygon fill="grey" stroke="grey" points="630.545,-114.925 638.622,-108.068 628.032,-108.391 630.545,-114.925"/>
</g>
<!-- 12 -->
<g id="node13" class="node"><title>12</title>
<path fill="none" stroke="#d85656" stroke-width="2" d="M836,-108C836,-108 760,-108 760,-108 754,-108 748,-102 748,-96 748,-96 748,-84 748,-84 748,-78 754,-72 760,-72 760,-72 836,-72 836,-72 842,-72 848,-78 848,-84 848,-84 848,-96 848,-96 848,-102 842,-108 836,-108"/>
<text text-anchor="middle" x="798" y="-93" font-family="sans" font-size="10.00">calc16SPCoA</text>
<text text-anchor="middle" x="798" y="-82" font-family="sans" font-size="10.00">beta: sharedsobs</text>
</g>
<!-- 8&#45;&gt;12 -->
<g id="edge31" class="edge"><title>8&#45;&gt;12</title>
<path fill="none" stroke="grey" stroke-width="2" d="M561.616,-148.424C609.633,-138.227 678.327,-123.113 738,-108 738.102,-107.974 738.203,-107.948 738.305,-107.923"/>
<polygon fill="grey" stroke="grey" points="739.173,-111.313 747.966,-105.403 737.407,-104.54 739.173,-111.313"/>
</g>
<!-- 13 -->
<g id="node14" class="node"><title>13</title>
<path fill="none" stroke="#d85656" stroke-width="2" d="M237.25,-108C237.25,-108 180.75,-108 180.75,-108 174.75,-108 168.75,-102 168.75,-96 168.75,-96 168.75,-84 168.75,-84 168.75,-78 174.75,-72 180.75,-72 180.75,-72 237.25,-72 237.25,-72 243.25,-72 249.25,-78 249.25,-84 249.25,-84 249.25,-96 249.25,-96 249.25,-102 243.25,-108 237.25,-108"/>
<text text-anchor="middle" x="209" y="-93" font-family="sans" font-size="10.00">calc16SPCoA</text>
<text text-anchor="middle" x="209" y="-82" font-family="sans" font-size="10.00">beta: thetayc</text>
</g>
<!-- 8&#45;&gt;13 -->
<g id="edge32" class="edge"><title>8&#45;&gt;13</title>
<path fill="none" stroke="grey" stroke-width="2" d="M440.59,-149.904C393.44,-140.771 326.18,-126.708 259.143,-108.162"/>
<polygon fill="grey" stroke="grey" points="259.829,-104.719 249.256,-105.393 257.942,-111.46 259.829,-104.719"/>
</g>
<!-- 14 -->
<g id="node15" class="node"><title>14</title>
<path fill="none" stroke="#d85656" stroke-width="2" d="M348.25,-108C348.25,-108 279.75,-108 279.75,-108 273.75,-108 267.75,-102 267.75,-96 267.75,-96 267.75,-84 267.75,-84 267.75,-78 273.75,-72 279.75,-72 279.75,-72 348.25,-72 348.25,-72 354.25,-72 360.25,-78 360.25,-84 360.25,-84 360.25,-96 360.25,-96 360.25,-102 354.25,-108 348.25,-108"/>
<text text-anchor="middle" x="314" y="-93" font-family="sans" font-size="10.00">calc16SPCoA</text>
<text text-anchor="middle" x="314" y="-82" font-family="sans" font-size="10.00">beta: braycurtis</text>
</g>
<!-- 8&#45;&gt;14 -->
<g id="edge33" class="edge"><title>8&#45;&gt;14</title>
<path fill="none" stroke="grey" stroke-width="2" d="M455.255,-143.876C429.236,-134.137 396.474,-121.872 369.053,-111.608"/>
<polygon fill="grey" stroke="grey" points="370.189,-108.296 359.597,-108.068 367.735,-114.852 370.189,-108.296"/>
</g>
<!-- 9&#45;&gt;0 -->
<g id="edge9" class="edge"><title>9&#45;&gt;0</title>
<path fill="none" stroke="grey" stroke-width="2" d="M517.098,-72.7646C556.458,-60.0091 610.385,-42.5327 645.932,-31.0129"/>
<polygon fill="grey" stroke="grey" points="647.456,-34.1983 655.889,-27.7858 645.297,-27.5393 647.456,-34.1983"/>
</g>
<!-- 10&#45;&gt;0 -->
<g id="edge10" class="edge"><title>10&#45;&gt;0</title>
<path fill="none" stroke="grey" stroke-width="2" d="M602.931,-71.8761C616.662,-62.8083 633.706,-51.5523 648.536,-41.7592"/>
<polygon fill="grey" stroke="grey" points="650.554,-44.621 656.97,-36.1898 646.696,-38.7798 650.554,-44.621"/>
</g>
<!-- 11&#45;&gt;0 -->
<g id="edge11" class="edge"><title>11&#45;&gt;0</title>
<path fill="none" stroke="grey" stroke-width="2" d="M683,-71.6966C683,-63.9827 683,-54.7125 683,-46.1124"/>
<polygon fill="grey" stroke="grey" points="686.5,-46.1043 683,-36.1043 679.5,-46.1044 686.5,-46.1043"/>
</g>
<!-- 12&#45;&gt;0 -->
<g id="edge12" class="edge"><title>12&#45;&gt;0</title>
<path fill="none" stroke="grey" stroke-width="2" d="M769.868,-71.8761C754.495,-62.5187 735.294,-50.831 718.856,-40.8253"/>
<polygon fill="grey" stroke="grey" points="720.412,-37.6749 710.05,-35.4651 716.772,-43.6543 720.412,-37.6749"/>
</g>
<!-- 13&#45;&gt;0 -->
<g id="edge13" class="edge"><title>13&#45;&gt;0</title>
<path fill="none" stroke="grey" stroke-width="2" d="M249.449,-74.2329C252.324,-73.4103 255.194,-72.6541 258,-72 398.802,-39.1799 570.891,-25.6407 645.515,-21.0269"/>
<polygon fill="grey" stroke="grey" points="646.031,-24.5023 655.803,-20.4097 645.611,-17.5149 646.031,-24.5023"/>
</g>
<!-- 14&#45;&gt;0 -->
<g id="edge14" class="edge"><title>14&#45;&gt;0</title>
<path fill="none" stroke="grey" stroke-width="2" d="M360.504,-75.5165C365.381,-74.2592 370.28,-73.0608 375,-72 471.681,-50.2685 587.173,-32.5694 645.43,-24.2095"/>
<polygon fill="grey" stroke="grey" points="646.218,-27.6328 655.625,-22.7584 645.231,-20.7027 646.218,-27.6328"/>
</g>
<!-- 15 -->
<g id="node16" class="node"><title>15</title>
<path fill="none" stroke="#d87d56" stroke-width="2" d="M998.25,-324C998.25,-324 945.75,-324 945.75,-324 939.75,-324 933.75,-318 933.75,-312 933.75,-312 933.75,-300 933.75,-300 933.75,-294 939.75,-288 945.75,-288 945.75,-288 998.25,-288 998.25,-288 1004.25,-288 1010.25,-294 1010.25,-300 1010.25,-300 1010.25,-312 1010.25,-312 1010.25,-318 1004.25,-324 998.25,-324"/>
<text text-anchor="middle" x="972" y="-303.5" font-family="sans" font-size="10.00">calc16SError</text>
</g>
<!-- 15&#45;&gt;0 -->
<g id="edge15" class="edge"><title>15&#45;&gt;0</title>
<path fill="none" stroke="grey" stroke-width="2" d="M1010.5,-294.818C1032.06,-286.929 1057.13,-273.6 1070,-252 1106.71,-190.406 1064.93,-120.052 1001,-72 957.291,-39.1461 795.055,-25.5686 720.684,-20.981"/>
<polygon fill="grey" stroke="grey" points="720.564,-17.4678 710.374,-20.3682 720.148,-24.4555 720.564,-17.4678"/>
</g>
<!-- 16 -->
<g id="node17" class="node"><title>16</title>
<path fill="none" stroke="#b6d856" stroke-width="2" d="M782.25,-324C782.25,-324 717.75,-324 717.75,-324 711.75,-324 705.75,-318 705.75,-312 705.75,-312 705.75,-300 705.75,-300 705.75,-294 711.75,-288 717.75,-288 717.75,-288 782.25,-288 782.25,-288 788.25,-288 794.25,-294 794.25,-300 794.25,-300 794.25,-312 794.25,-312 794.25,-318 788.25,-324 782.25,-324"/>
<text text-anchor="middle" x="750" y="-303.5" font-family="sans" font-size="10.00">split16SShared</text>
</g>
<!-- 16&#45;&gt;1 -->
<g id="edge16" class="edge"><title>16&#45;&gt;1</title>
<path fill="none" stroke="grey" stroke-width="2" d="M705.484,-292.485C664.388,-280.932 603.13,-263.711 558.377,-251.13"/>
<polygon fill="grey" stroke="grey" points="559.096,-247.697 548.522,-248.36 557.202,-254.435 559.096,-247.697"/>
</g>
<!-- 16&#45;&gt;2 -->
<g id="edge17" class="edge"><title>16&#45;&gt;2</title>
<path fill="none" stroke="grey" stroke-width="2" d="M786.939,-287.876C807.49,-278.349 833.251,-266.407 855.089,-256.283"/>
<polygon fill="grey" stroke="grey" points="856.581,-259.45 864.181,-252.068 853.637,-253.099 856.581,-259.45"/>
</g>
<!-- 16&#45;&gt;3 -->
<g id="edge18" class="edge"><title>16&#45;&gt;3</title>
<path fill="none" stroke="grey" stroke-width="2" d="M794.551,-294.129C834.429,-284.278 894.72,-269.09 956.525,-252.078"/>
<polygon fill="grey" stroke="grey" points="957.749,-255.371 966.454,-249.332 955.883,-248.624 957.749,-255.371"/>
</g>
<!-- 16&#45;&gt;4 -->
<g id="edge19" class="edge"><title>16&#45;&gt;4</title>
<path fill="none" stroke="grey" stroke-width="2" d="M726.037,-287.878C714.661,-278.527 701.864,-266.006 694,-252 683.331,-232.998 678.643,-208.636 676.588,-190.206"/>
<polygon fill="grey" stroke="grey" points="680.062,-189.761 675.657,-180.126 673.092,-190.405 680.062,-189.761"/>
</g>
<!-- 16&#45;&gt;5 -->
<g id="edge21" class="edge"><title>16&#45;&gt;5</title>
<path fill="none" stroke="grey" stroke-width="2" d="M767.975,-287.89C786.86,-269.935 817.45,-240.912 844,-216 854.108,-206.516 865.268,-196.122 875.013,-187.072"/>
<polygon fill="grey" stroke="grey" points="877.529,-189.512 882.478,-180.144 872.767,-184.381 877.529,-189.512"/>
</g>
<!-- 16&#45;&gt;6 -->
<g id="edge23" class="edge"><title>16&#45;&gt;6</title>
<path fill="none" stroke="grey" stroke-width="2" d="M750,-287.697C750,-279.983 750,-270.712 750,-262.112"/>
<polygon fill="grey" stroke="grey" points="753.5,-262.104 750,-252.104 746.5,-262.104 753.5,-262.104"/>
</g>
<!-- 16&#45;&gt;7 -->
<g id="edge24" class="edge"><title>16&#45;&gt;7</title>
<path fill="none" stroke="grey" stroke-width="2" d="M705.508,-298.124C645.817,-288.709 536.595,-270.817 444,-252 336.337,-230.121 212.636,-200.363 136.136,-181.414"/>
<polygon fill="grey" stroke="grey" points="136.672,-177.941 126.123,-178.929 134.986,-184.735 136.672,-177.941"/>
</g>
<!-- 16&#45;&gt;8 -->
<g id="edge26" class="edge"><title>16&#45;&gt;8</title>
<path fill="none" stroke="grey" stroke-width="2" d="M719.965,-287.871C674.91,-262.178 589.815,-213.65 540.013,-185.248"/>
<polygon fill="grey" stroke="grey" points="541.562,-182.103 531.142,-180.189 538.095,-188.184 541.562,-182.103"/>
</g>
<!-- 17 -->
<g id="node18" class="node"><title>17</title>
<path fill="none" stroke="#56a9d8" stroke-width="2" d="M904,-396C904,-396 832,-396 832,-396 826,-396 820,-390 820,-384 820,-384 820,-372 820,-372 820,-366 826,-360 832,-360 832,-360 904,-360 904,-360 910,-360 916,-366 916,-372 916,-372 916,-384 916,-384 916,-390 910,-396 904,-396"/>
<text text-anchor="middle" x="868" y="-375.5" font-family="sans" font-size="10.00">make16SShared</text>
</g>
<!-- 17&#45;&gt;15 -->
<g id="edge34" class="edge"><title>17&#45;&gt;15</title>
<path fill="none" stroke="grey" stroke-width="2" d="M893.441,-359.876C906.787,-350.893 923.324,-339.763 937.778,-330.034"/>
<polygon fill="grey" stroke="grey" points="940.119,-332.677 946.461,-324.19 936.211,-326.87 940.119,-332.677"/>
</g>
<!-- 17&#45;&gt;16 -->
<g id="edge36" class="edge"><title>17&#45;&gt;16</title>
<path fill="none" stroke="grey" stroke-width="2" d="M839.134,-359.876C823.705,-350.724 804.519,-339.342 787.903,-329.485"/>
<polygon fill="grey" stroke="grey" points="789.363,-326.282 778.977,-324.19 785.792,-332.302 789.363,-326.282"/>
</g>
<!-- 18 -->
<g id="node19" class="node"><title>18</title>
<path fill="none" stroke="#56d892" stroke-width="2" d="M998,-396C998,-396 946,-396 946,-396 940,-396 934,-390 934,-384 934,-384 934,-372 934,-372 934,-366 940,-360 946,-360 946,-360 998,-360 998,-360 1004,-360 1010,-366 1010,-372 1010,-372 1010,-384 1010,-384 1010,-390 1004,-396 998,-396"/>
<text text-anchor="middle" x="972" y="-375.5" font-family="sans" font-size="10.00">get16SMock</text>
</g>
<!-- 18&#45;&gt;15 -->
<g id="edge35" class="edge"><title>18&#45;&gt;15</title>
<path fill="none" stroke="grey" stroke-width="2" d="M972,-359.697C972,-351.983 972,-342.712 972,-334.112"/>
<polygon fill="grey" stroke="grey" points="975.5,-334.104 972,-324.104 968.5,-334.104 975.5,-334.104"/>
</g>
<!-- 19 -->
<g id="node20" class="node"><title>19</title>
<path fill="none" stroke="#68d856" stroke-width="2" d="M960,-468C960,-468 880,-468 880,-468 874,-468 868,-462 868,-456 868,-456 868,-444 868,-444 868,-438 874,-432 880,-432 880,-432 960,-432 960,-432 966,-432 972,-438 972,-444 972,-444 972,-456 972,-456 972,-462 966,-468 960,-468"/>
<text text-anchor="middle" x="920" y="-447.5" font-family="sans" font-size="10.00">get16SReferences</text>
</g>
<!-- 19&#45;&gt;17 -->
<g id="edge37" class="edge"><title>19&#45;&gt;17</title>
<path fill="none" stroke="grey" stroke-width="2" d="M907.146,-431.697C900.975,-423.389 893.463,-413.277 886.676,-404.141"/>
<polygon fill="grey" stroke="grey" points="889.479,-402.045 880.706,-396.104 883.86,-406.219 889.479,-402.045"/>
</g>
<!-- 19&#45;&gt;18 -->
<g id="edge38" class="edge"><title>19&#45;&gt;18</title>
<path fill="none" stroke="grey" stroke-width="2" d="M932.854,-431.697C939.025,-423.389 946.537,-413.277 953.324,-404.141"/>
<polygon fill="grey" stroke="grey" points="956.14,-406.219 959.294,-396.104 950.521,-402.045 956.14,-406.219"/>
</g>
</g>
</svg>
